<mxfile host="app.diagrams.net" modified="2023-06-23T10:50:40.475Z" agent="Mozilla/5.0 (Windows NT 10.0; Win64; x64) AppleWebKit/537.36 (KHTML, like Gecko) Chrome/114.0.0.0 Safari/537.36" etag="fgI__cAaZ1zNtY2-KIYH" version="21.2.1" type="github">
  <diagram name="第 1 页" id="OoWNVezto3rYhGsD5WaQ">
    <mxGraphModel dx="982" dy="538" grid="1" gridSize="10" guides="1" tooltips="1" connect="1" arrows="1" fold="1" page="1" pageScale="1" pageWidth="827" pageHeight="1169" math="1" shadow="0">
      <root>
        <mxCell id="0" />
        <mxCell id="1" parent="0" />
        <mxCell id="C0zk4MkQJhlZNX3381d1-1" value="" style="edgeStyle=orthogonalEdgeStyle;rounded=0;orthogonalLoop=1;jettySize=auto;html=1;fillColor=#f8cecc;strokeColor=#b85450;" parent="1" source="C0zk4MkQJhlZNX3381d1-3" target="C0zk4MkQJhlZNX3381d1-5" edge="1">
          <mxGeometry relative="1" as="geometry" />
        </mxCell>
        <mxCell id="C0zk4MkQJhlZNX3381d1-2" value="" style="edgeStyle=orthogonalEdgeStyle;rounded=0;orthogonalLoop=1;jettySize=auto;html=1;fillColor=#fff2cc;strokeColor=#877336;dashed=1;" parent="1" source="C0zk4MkQJhlZNX3381d1-3" target="C0zk4MkQJhlZNX3381d1-6" edge="1">
          <mxGeometry relative="1" as="geometry" />
        </mxCell>
        <mxCell id="C0zk4MkQJhlZNX3381d1-3" value="&lt;span style=&quot;color: rgb(0, 0, 0); font-family: &amp;quot;Times New Roman&amp;quot;; font-size: 16px; font-style: normal; font-variant-ligatures: normal; font-variant-caps: normal; font-weight: 400; letter-spacing: normal; orphans: 2; text-align: center; text-indent: 0px; text-transform: none; widows: 2; word-spacing: 0px; -webkit-text-stroke-width: 0px; text-decoration-thickness: initial; text-decoration-style: initial; text-decoration-color: initial; float: none; display: inline !important;&quot;&gt;PCF in CPS&lt;/span&gt;" style="rounded=0;whiteSpace=wrap;html=1;shadow=1;fillColor=#f8cecc;strokeColor=#b85450;labelBackgroundColor=none;" parent="1" vertex="1">
          <mxGeometry x="242.5" y="190" width="100" height="60" as="geometry" />
        </mxCell>
        <mxCell id="C0zk4MkQJhlZNX3381d1-4" value="" style="edgeStyle=orthogonalEdgeStyle;rounded=0;orthogonalLoop=1;jettySize=auto;html=1;fillColor=#fff2cc;strokeColor=#877336;dashed=1;" parent="1" source="C0zk4MkQJhlZNX3381d1-5" target="C0zk4MkQJhlZNX3381d1-7" edge="1">
          <mxGeometry relative="1" as="geometry" />
        </mxCell>
        <mxCell id="C0zk4MkQJhlZNX3381d1-5" value="&lt;font face=&quot;Times New Roman&quot;&gt;&lt;span style=&quot;font-size: 16px;&quot;&gt;Simplified LLVM IR&lt;/span&gt;&lt;/font&gt;" style="rounded=0;whiteSpace=wrap;html=1;shadow=1;fillColor=#f8cecc;strokeColor=#b85450;labelBackgroundColor=none;" parent="1" vertex="1">
          <mxGeometry x="452.5" y="190" width="100" height="60" as="geometry" />
        </mxCell>
        <mxCell id="C0zk4MkQJhlZNX3381d1-6" value="&lt;font style=&quot;font-size: 16px;&quot; face=&quot;Times New Roman&quot;&gt;Semantics of&lt;br style=&quot;border-color: var(--border-color); font-size: 16px;&quot;&gt;&lt;span style=&quot;font-size: 16px;&quot;&gt;CPS&lt;/span&gt;&lt;/font&gt;" style="rounded=1;whiteSpace=wrap;html=1;fillColor=#fff2cc;strokeColor=#d6b656;" parent="1" vertex="1">
          <mxGeometry x="240" y="320" width="105" height="54.5" as="geometry" />
        </mxCell>
        <mxCell id="C0zk4MkQJhlZNX3381d1-7" value="&lt;font style=&quot;font-size: 16px;&quot; face=&quot;Times New Roman&quot;&gt;Semantics of&lt;br style=&quot;border-color: var(--border-color); font-size: 16px;&quot;&gt;SSA&lt;br&gt;&lt;/font&gt;" style="rounded=1;whiteSpace=wrap;html=1;fillColor=#fff2cc;strokeColor=#d6b656;" parent="1" vertex="1">
          <mxGeometry x="450" y="320" width="105" height="54.5" as="geometry" />
        </mxCell>
        <mxCell id="C0zk4MkQJhlZNX3381d1-8" value="&lt;font color=&quot;#333333&quot; face=&quot;Times New Roman&quot;&gt;&lt;span style=&quot;font-size: 16px;&quot;&gt;Extract Small-Step Operational Semantics&lt;/span&gt;&lt;/font&gt;" style="text;html=1;strokeColor=none;fillColor=none;align=center;verticalAlign=middle;whiteSpace=wrap;rounded=0;" parent="1" vertex="1">
          <mxGeometry x="321.25" y="260" width="153" height="60" as="geometry" />
        </mxCell>
        <mxCell id="C0zk4MkQJhlZNX3381d1-9" value="&lt;font color=&quot;#990000&quot; style=&quot;font-size: 16px;&quot; face=&quot;Times New Roman&quot;&gt;$$\mathcal{G}$$&lt;/font&gt;" style="text;html=1;strokeColor=none;fillColor=none;align=center;verticalAlign=middle;whiteSpace=wrap;rounded=0;" parent="1" vertex="1">
          <mxGeometry x="357.5" y="190" width="70" height="30" as="geometry" />
        </mxCell>
        <mxCell id="C0zk4MkQJhlZNX3381d1-11" value="&lt;font face=&quot;Times New Roman&quot;&gt;&lt;span style=&quot;font-size: 16px; font-weight: normal;&quot;&gt;Forward&lt;br&gt;Simulation&lt;/span&gt;&lt;/font&gt;" style="text;html=1;strokeColor=none;fillColor=none;align=center;verticalAlign=middle;whiteSpace=wrap;rounded=0;fontColor=#877336;fontStyle=1" parent="1" vertex="1">
          <mxGeometry x="348.75" y="360" width="87.5" height="30" as="geometry" />
        </mxCell>
        <mxCell id="ytMCAIwwGjmve62k04MT-3" value="" style="endArrow=classic;html=1;rounded=0;exitX=1;exitY=0.5;exitDx=0;exitDy=0;entryX=0;entryY=0.5;entryDx=0;entryDy=0;fontColor=#877336;strokeColor=#877336;" edge="1" parent="1" source="C0zk4MkQJhlZNX3381d1-6" target="C0zk4MkQJhlZNX3381d1-7">
          <mxGeometry width="50" height="50" relative="1" as="geometry">
            <mxPoint x="390" y="300" as="sourcePoint" />
            <mxPoint x="440" y="250" as="targetPoint" />
            <Array as="points">
              <mxPoint x="390" y="347" />
            </Array>
          </mxGeometry>
        </mxCell>
      </root>
    </mxGraphModel>
  </diagram>
</mxfile>
